<?xml version="1.0"?>
<svg width="512" height="512" xmlns="http://www.w3.org/2000/svg" xmlns:svg="http://www.w3.org/2000/svg" xmlns:xlink="http://www.w3.org/1999/xlink">
 <g>
  <title>Layer 1</title>
  <path fill="#cc0001" d="m0,0.05l512,0l0,512l-512,0l0,-512z" id="svg_1"/>
  <path id="a" fill="#fff" d="m0,475.48l512,0l0,36.57l-512,0l0,-36.57z"/>
  <use height="100%" width="100%" xlink:href="#a" y="-73.142998" x="0" id="svg_2"/>
  <use height="100%" width="100%" xlink:href="#a" y="-146.285995" x="0" id="svg_3"/>
  <use height="100%" width="100%" xlink:href="#a" y="-219.429993" x="0" id="svg_4"/>
  <use height="100%" width="100%" xlink:href="#a" y="-292.570007" x="0" id="svg_5"/>
  <use height="100%" width="100%" xlink:href="#a" y="-365.713989" x="0" id="svg_6"/>
  <use height="100%" width="100%" xlink:href="#a" y="-438.856995" x="0" id="svg_7"/>
  <path fill="#010066" d="m0,0.05l512,0l0,292.57l-512,0l0,-292.57z" id="svg_8"/>
  <path d="m203.65,56.62c-60.76,0 -110.08,49.155 -110.08,109.716c0,60.56 49.32,109.714 110.08,109.714c21.954,0 42.408,-6.424 59.586,-17.475a97.658,97.658 0 0 1 -31.916,5.34c-53.88,0 -97.608,-43.583 -97.608,-97.283s43.728,-97.284 97.608,-97.284c11.907,0 23.313,2.127 33.866,6.022c-17.57,-11.833 -38.75,-18.75 -61.535,-18.75l-0.001,0z" fill="#fc0" id="svg_9"/>
  <path d="m373.204,223.45l-46.37,-24.192l13.71,49.513l-31.013,-41.417l-9.675,50.41l-9.516,-50.44l-31.145,41.326l13.866,-49.473l-46.444,24.053l34.502,-38.705l-52.547,2.018l48.306,-20.272l-48.24,-20.417l52.54,2.176l-34.38,-38.81l46.37,24.194l-13.71,-49.514l31.013,41.42l9.675,-50.413l9.516,50.44l31.146,-41.324l-13.867,49.472l46.444,-24.054l-34.502,38.706l52.547,-2.018l-48.306,20.273l48.24,20.418l-52.54,-2.176l34.38,38.806z" fill="#fc0" id="svg_10"/>
 </g>
</svg>