<?xml version="1.0"?>
<svg width="512" height="512" xmlns="http://www.w3.org/2000/svg" xmlns:svg="http://www.w3.org/2000/svg">
 <defs>
  <clipPath id="a">
   <path fill-opacity="0.67" d="m164.85,0l744.09,0l0,744.09l-744.09,0l0,-744.09z" id="svg_1"/>
  </clipPath>
 </defs>
 <g>
  <title>Layer 1</title>
  <g clip-path="url(#a)" transform="matrix(0.7,0,0,0.7,-113.43,0) " id="svg_2">
   <path fill-rule="evenodd" fill="#ba0000" d="m1030.142856,744.094l-1063,0l0,-744.09l1063,0l0,744.09z" id="svg_3"/>
   <path d="m483.514856,360.137s-75.02,-32.3 -64.255,-116c10.42,-40.29 28.828,-67.727 62.17,-82.66c15.63,-4.864 31.607,-6.948 47.93,-8.337c-4.284,4.052 -7.872,8.104 -9.724,13.198c-3.59,9.146 -0.927,17.945 3.82,26.743c6.02,10.19 9.606,20.724 10.765,34.385c2.2,19.218 -6.02,37.743 -21.186,48.973c-9.61,7.41 -20.954,9.956 -30.217,18.407c-7.177,7.063 -11.576,14.126 -13.197,26.396c-0.232,23.387 6.137,26.63 13.894,38.9l0,-0.005z" fill-rule="evenodd" fill="#fff" id="svg_4"/>
   <path d="m469.274856,239.037l0,-0.347" fill-rule="evenodd" stroke="#000" stroke-width="3.127" fill="#ba0000" id="svg_5"/>
   <path d="m474.014856,351.447c-29.18,-25.82 -26.63,-90.76 -4.4,-112.41" stroke="#ba0000" stroke-width="3.127" fill="none" id="svg_6"/>
   <path fill-rule="evenodd" fill="#ba0000" d="m469.040856,223.064l9.61,-2.165l1.144,-9.37l4.78,8.03l9.608,-2.18l-6.657,7.127l4.794,8.02l-8.894,-3.622l-6.646,7.136l1.16,-9.365" id="svg_7"/>
   <path d="m489.889856,354.6s8.9,-81.194 92.08,-95.426c41.576,-1.843 73.203,7.717 97.25,35.22c9.23,13.518 15.905,28.184 22.016,43.383c-5.13,-2.908 -10.055,-5.152 -15.468,-5.43c-9.797,-0.752 -17.43,4.372 -24.45,11.488c-7.977,8.74 -17,15.258 -29.72,20.37c-17.73,7.732 -37.85,5.302 -53.032,-5.907c-9.9,-7.018 -15.66,-17.117 -26.454,-23.498c-8.857,-4.792 -16.9,-6.928 -29.105,-4.883c-22.428,6.63 -23.662,13.67 -33.12,24.683l0.003,0z" fill-rule="evenodd" fill="#fff" id="svg_8"/>
   <path d="m601.502856,305.5l0.33,-0.103" fill-rule="evenodd" stroke="#000" stroke-width="3.127" fill="#ba0000" id="svg_9"/>
   <path d="m495.414856,342.97c16.137,-35.466 78.974,-52.056 106.187,-37.146" stroke="#ba0000" stroke-width="3.127" fill="none" id="svg_10"/>
   <path fill-rule="evenodd" fill="#ba0000" d="m616.705856,300.594l4.886,8.556l9.29,-1.652l-6.275,6.923l4.9,8.548l-8.765,-4.276l-6.264,6.933l0.857,-9.565l-8.77,-4.263l9.295,-1.635" id="svg_11"/>
   <g id="svg_12">
    <path d="m495.495856,360.463s79.814,-17.346 119.728,57.006c14.95,38.836 15.93,71.86 -2.51,103.4c-9.887,13.043 -21.674,24.03 -34.145,34.652c1.13,-5.788 1.69,-11.17 0.236,-16.392c-2.397,-9.528 -9.68,-15.138 -18.657,-19.535c-10.822,-4.788 -19.866,-11.273 -28.753,-21.713c-12.964,-14.356 -17.05,-34.206 -11.242,-52.16c3.51,-11.617 11.257,-20.285 13.88,-32.547c1.73,-9.92 1.202,-18.223 -4.614,-29.148c-13.41,-19.16 -20.477,-18.095 -33.924,-23.568l0.001,0.005z" fill-rule="evenodd" fill="#fff" id="svg_13"/>
    <path d="m577.499856,450.702l0.202,0.282" fill-rule="evenodd" stroke="#000" stroke-width="3.126969" fill="#ba0000" id="svg_14"/>
    <path d="m508.276856,362.008c38.754,4.038 74.442,58.352 68.946,88.892" stroke="#ba0000" stroke-width="3.126969" fill="none" id="svg_15"/>
    <path fill-rule="evenodd" fill="#ba0000" d="m586.978856,463.56l-6.56,7.35l4.517,8.286l-8.557,-3.752l-6.55,7.36l1.272,-9.668l-8.564,-3.738l9.343,-2.225l1.256,-9.67l4.502,8.295" id="svg_16"/>
   </g>
   <g id="svg_17">
    <path d="m493.698856,368.693s39.062,71.732 -21.09,130.92c-33.075,25.256 -64.496,35.47 -99.943,26.628c-15.297,-5.825 -29.15,-14.052 -42.848,-23.04c5.872,-0.54 11.196,-1.512 15.798,-4.375c8.472,-4.977 11.81,-13.543 13.51,-23.394c1.556,-11.73 5.24,-22.23 12.764,-33.692c10.137,-16.474 28.04,-25.97 46.905,-25.438c12.134,0.106 22.63,5.108 35.134,4.18c10.007,-1.124 17.828,-3.963 26.68,-12.613c14.623,-18.25 11.616,-24.735 13.092,-39.177l-0.002,0.001z" fill-rule="evenodd" fill="#fff" id="svg_18"/>
    <path d="m430.119856,472.74l-0.214,0.273" fill-rule="evenodd" stroke="#000" stroke-width="3.127" fill="#ba0000" id="svg_19"/>
    <path d="m495.804856,381.395c7.008,38.327 -35.098,87.833 -65.952,91.135" stroke="#ba0000" stroke-width="3.127" fill="none" id="svg_20"/>
    <path fill-rule="evenodd" fill="#ba0000" d="m420.440856,485.45l-8.896,-4.234l-6.684,6.662l1.197,-9.266l-8.903,-4.22l9.637,-1.494l1.18,-9.27l4.76,8.343l9.634,-1.508l-6.697,6.65" id="svg_21"/>
   </g>
   <g id="svg_22">
    <path d="m484.848856,367.138s-54.677,60.677 -130.488,23.61c-34.81,-22.806 -54.885,-49.048 -58.323,-85.42c0.412,-16.362 3.57,-32.163 7.494,-48.068c2.46,5.358 5.147,10.057 9.376,13.447c7.51,6.336 16.697,6.64 26.553,4.97c11.58,-2.43 22.71,-2.446 36.02,0.843c18.906,4.088 33.81,17.82 39.577,35.788c3.93,11.48 2.7,23.04 7.73,34.527c4.385,9.065 9.662,15.498 20.762,20.973c22.072,7.728 27.188,2.738 41.3,-0.67l-0.001,0z" fill-rule="evenodd" fill="#fff" id="svg_23"/>
    <path d="m365.588856,341.743l-0.328,-0.112" fill-rule="evenodd" stroke="#000" stroke-width="3.126969" fill="#ba0000" id="svg_24"/>
    <path d="m473.568856,373.345c-33.82,19.345 -94.504,-3.92 -107.87,-31.924" stroke="#ba0000" stroke-width="3.126969" fill="none" id="svg_25"/>
    <path fill-rule="evenodd" fill="#ba0000" d="m350.386856,336.836l1.036,-9.797l-8.505,-4.092l9.138,-1.95l1.02,-9.798l4.613,8.593l9.135,-1.965l-6.286,7.26l4.625,8.585l-8.5,-4.107" id="svg_26"/>
   </g>
  </g>
 </g>
</svg>