<?xml version="1.0"?>
<svg width="640" height="480" xmlns="http://www.w3.org/2000/svg" xmlns:svg="http://www.w3.org/2000/svg">
 <metadata id="metadata3666">image/svg+xml</metadata>
 <defs>
  <clipPath id="clipPath8673" clipPathUnits="userSpaceOnUse">
   <rect id="rect8675" fill-opacity="0.67" height="480" width="640" y="0" x="0"/>
  </clipPath>
 </defs>
 <g>
  <title>Layer 1</title>
  <g id="flag" clip-path="url(#clipPath8673)">
   <g id="g8587" fill-rule="evenodd">
    <rect id="rect149" height="480" width="720" y="0" x="2.000001" stroke-width="1pt" fill="#f50013"/>
    <rect id="rect280" height="240" width="720" y="0" x="2.000001" stroke-width="1pt" fill="#00189a"/>
    <path id="path279" d="m2.000001,0l413.15,239.69l-413.15,239.39l0.001,-479.08l-0.001,0z" stroke-width="1pt" fill="#feffff"/>
    <path id="path205" d="m21.578001,437.1l4.2112,-18.49l-16.605,-9.1751l19.301,-2.4097l4.3908,-18.458l7.7175,17.003l19.317,-2.2333l-14.532,12.917l7.5486,17.078l-16.698,-9.019l-14.653,12.787l0.0019,0.0001z" stroke-width="0.11287" fill="#eca300"/>
    <path id="path425" d="m109.452001,198.5l-14.826,-25.459l-8.5262,-0.96556l20.301,28.83l3.0515,-2.4053l-0.0003,-0.00014zm-11.508,11.665l-31.173,-23.986l-1.1167,-13.964l12.606,-0.42603l25.771,31.518l-6.0873,6.8576l0,0.00043zm-4.7339,5.4849l-25.656,-14.482l-1.0805,-8.5124l29.101,19.91l-2.3639,3.0837l-0.0006,0.0007z" stroke-width="1pt" fill="#eca300"/>
    <path id="path426" d="m146.139001,193.27l7.7384,-28.427l-5.2941,-6.7529l-6.2992,34.693l3.8549,0.48677l0,0.00013zm-16.386,-0.0163l-4.7804,-39.042l9.1667,-10.593l9.1482,8.6837l-4.3772,40.477l-9.1573,0.47383l0,0.00047zm-7.2297,0.47507l-7.6818,-28.442l5.3075,-6.7423l6.2301,34.705l-3.8559,0.4791l0.0001,0.0002z" stroke-width="1pt" fill="#eca300"/>
    <path id="path427" d="m175.869001,216.19l25.839,-14.153l1.1889,-8.4979l-29.352,19.538l2.3244,3.1136l-0.0003,-0.0007zm-11.359,-11.81l24.795,-30.533l13.989,-0.75002l0.0952,12.613l-32.184,24.935l-6.6955,-6.2651l0.0003,0.00012zm-5.3588,-4.8762l15.15,-25.268l8.5378,-0.85677l-20.667,28.568l-3.0206,-2.444l-0.0002,0.00077z" stroke-width="1pt" fill="#eca300"/>
    <path id="path428" d="m180.469001,251.81l28.423,7.7533l6.7556,-5.2906l-34.69,-6.3174l-0.48879,3.8546l0.00019,0.0001zm0.0249,-16.386l39.044,-4.7599l10.588,9.1723l-8.6885,9.1437l-40.475,-4.3985l-0.46902,-9.1576l0.00052,0zm-0.47128,-7.2299l28.446,-7.6669l6.7395,5.3111l-34.709,6.2119l-0.47708,-3.8561l0.00058,0z" stroke-width="1pt" fill="#eca300"/>
    <path id="path429" d="m158.829001,280.78l14.939,25.393l8.5304,0.92791l-20.428,-28.74l-3.0409,2.4188l-0.0005,0.00029zm11.457,-11.715l31.279,23.848l1.1784,13.959l-12.604,0.48168l-25.91,-31.404l6.057,-6.8844l-0.0004,-0.00028zm4.7097,-5.5057l25.72,14.368l1.118,8.5076l-29.188,-19.782l2.3503,-3.0941l-0.0003,0.0005z" stroke-width="1pt" fill="#eca300"/>
    <path id="path430" d="m122.272001,286.2l-7.5427,28.479l5.3404,6.7163l6.0605,-34.735l-3.8582,-0.46025l0,-0.00005zm16.386,-0.0964l5.0488,39.008l-9.0937,10.656l-9.2077,-8.6206l4.0988,-40.506l9.1539,-0.53679l-0.0001,-0.00061zm7.2262,-0.52478l7.8772,28.389l-5.261,6.7787l-6.4686,-34.662l3.8525,-0.50561l-0.0001,-0.00009z" stroke-width="1pt" fill="#eca300"/>
    <path id="path431" d="m92.608001,263.87l-25.608,14.567l-1.0522,8.516l29.034,-20.007l-2.3742,-3.0758l0.0004,-0.0002zm11.547,11.626l-24.301,30.928l-13.975,0.97473l-0.29785,-12.61l31.779,-25.449l6.7953,6.1567l-0.00045,-0.00043zm5.4365,4.7894l-14.742,25.508l-8.523,0.99386l20.205,-28.897l3.0595,2.3952l0.0005,-0.00006z" stroke-width="1pt" fill="#eca300"/>
    <path id="path432" d="m87.542001,227.9l-28.477,-7.5514l-6.7179,5.3384l34.734,6.0711l0.46143,-3.858l-0.00053,-0.0001zm0.09139,16.386l-39.009,5.0369l-10.653,-9.0969l8.6234,-9.2051l40.505,4.1111l0.534,9.154l-0.0004,0zm0.52257,7.2264l-28.391,7.8685l-6.7771,-5.2631l34.664,-6.4581l0.50443,3.8526l-0.00033,0.0001z" stroke-width="1pt" fill="#eca300"/>
    <path id="path433" d="m343.719001,264.76l-10.991,-15.454l-17.902,6.2788l11.054,-16.004l-10.847,-15.566l17.824,5.564l11.197,-15.899l-0.0391,19.443l17.768,5.7399l-17.847,6.452l-0.2167,19.446l-0.0002,-0.0007z" stroke-width="0.11287" fill="#eca300"/>
    <path id="path434" d="m32.147301,92.122l-3.4083,-18.655l-18.876,-1.897l16.794,-9.814l-3.231,-18.696l13.788,12.592l16.879,-9.658l-8.2732,17.595l13.662,12.727l-18.9,-1.718l-8.4347,17.524l0.0002,0z" stroke-width="0.11287" fill="#eca300"/>
    <ellipse id="path418" cx="252.686704" rx="73.029" cy="353.88" transform="matrix(0.67733,0,0,0.67733,-37.108,-0.000016235) " ry="73.029" stroke-width="1pt" fill="#eca300"/>
   </g>
  </g>
 </g>
</svg>