<?xml version="1.0"?>
<svg width="512" height="512" xmlns="http://www.w3.org/2000/svg" xmlns:svg="http://www.w3.org/2000/svg">
 <metadata id="metadata3079">image/svg+xml</metadata>
 <defs>
  <clipPath clipPathUnits="userSpaceOnUse" id="clipPath5047">
   <rect x="27.682" y="-0.000003" width="708.66" height="708.66" fill-opacity="0.67" id="rect5049"/>
  </clipPath>
 </defs>
 <g>
  <title>Layer 1</title>
  <g transform="matrix(0.72249,0,0,0.72249,-20,0.0000024116) " clip-path="url(#clipPath5047)" fill-rule="evenodd" id="flag">
   <rect fill="#fff" stroke-width="1pt" x="0" y="0" width="1063" height="708.66" id="rect149"/>
   <rect fill="#df0000" stroke-width="1pt" x="0" y="0" width="1063" height="354.33" id="rect148"/>
   <path fill="#fff" stroke-width="0.52437" d="m333.16512,79.398816c-49.080125,11.252909 -85.548355,47.594131 -95.859288,97.004477c-14.008982,67.127962 29.717755,132.854602 96.974842,146.884752c-67.951397,19.372954 -138.169886,-19.688357 -157.365029,-87.013181c-19.193026,-67.322707 19.868285,-137.541197 87.193109,-156.736339c23.634072,-6.739891 45.392659,-6.782227 69.056366,-0.139709z" id="path141"/>
   <polygon fill="#fff" stroke-width="0.52437" points="286.0561218261719,183.4454803466797 267.10986328125,169.63465881347656 290.5496520996094,169.4329376220703 297.8310546875,147.13027954101562 305.25909423828125,169.3778533935547 328.71728515625,169.41458129882812 309.86273193359375,183.3538055419922 317.0890808105469,205.67477416992188 317.0890808105469,205.67477416992188 297.99609375,192.04742431640625 278.99481201171875,205.80316162109375 " id="polygon142"/>
   <polygon fill="#fff" stroke-width="0.52437" points="307.9861145019531,261.30548095703125 289.03985595703125,247.49465942382812 312.47967529296875,247.29293823242188 319.76104736328125,224.99026489257812 327.1891174316406,247.23785400390625 350.64727783203125,247.2745819091797 331.792724609375,261.21380615234375 339.0190734863281,283.5347595214844 339.0190734863281,283.5347595214844 319.92608642578125,269.9074401855469 300.9248352050781,283.6631774902344 " id="polygon144"/>
   <polygon fill="#fff" stroke-width="0.52437" points="384.2461242675781,260.7354736328125 365.29986572265625,246.92465209960938 388.7396545410156,246.72293090820312 396.0210266113281,224.42027282714844 403.4491271972656,246.66786193847656 426.9072570800781,246.70457458496094 408.052734375,260.643798828125 415.2790832519531,282.9647521972656 415.2790832519531,282.9647521972656 396.18609619140625,269.3374328613281 377.184814453125,283.0931701660156 " id="polygon145"/>
   <polygon fill="#fff" stroke-width="0.52437" points="405.96612548828125,185.50547790527344 387.0198669433594,171.6946563720703 410.45965576171875,171.49293518066406 417.74102783203125,149.19027709960938 425.16912841796875,171.43785095214844 448.62725830078125,171.47457885742188 429.7727355957031,185.41380310058594 436.99908447265625,207.73477172851562 436.99908447265625,207.73477172851562 417.9060974121094,194.107421875 398.9048156738281,207.86317443847656 " id="polygon146"/>
   <polygon fill="#fff" stroke-width="0.52437" points="345.6761169433594,134.92547607421875 326.7298583984375,121.11465454101562 350.1696472167969,120.91293334960938 357.4510192871094,98.61026763916016 364.8791198730469,120.85785675048828 388.3372802734375,120.89457702636719 369.48272705078125,134.83380126953125 376.7090759277344,157.15476989746094 376.7090759277344,157.15476989746094 357.6160888671875,143.5274200439453 338.61480712890625,157.28317260742188 " id="polygon147"/>
  </g>
 </g>
</svg>